<svg width="26" height="26" viewBox="0 0 26 26" fill="none" xmlns="http://www.w3.org/2000/svg">
<path d="M21.1821 3.24682C20.9212 3.26579 20.6652 3.32698 20.424 3.428H20.4207C20.1892 3.51982 19.0882 3.98294 17.4145 4.68494L11.4166 7.211C7.11281 9.02288 2.88213 10.8071 2.88213 10.8071L2.9325 10.7876C2.9325 10.7876 2.64081 10.8835 2.33613 11.0923C2.14789 11.2121 1.98592 11.3688 1.86 11.553C1.7105 11.7724 1.59025 12.1079 1.63494 12.4549C1.70806 13.0415 2.08831 13.3933 2.36131 13.5875C2.63756 13.7841 2.90081 13.8759 2.90081 13.8759H2.90731L6.87475 15.2125C7.05269 15.7837 8.08375 19.1734 8.33156 19.9543C8.47781 20.4206 8.62 20.7123 8.79794 20.9349C8.88406 21.0487 8.98481 21.1438 9.10587 21.2201C9.16881 21.2567 9.23592 21.2857 9.30575 21.3063L9.26512 21.2965C9.27731 21.2998 9.28706 21.3095 9.296 21.3128C9.3285 21.3217 9.35044 21.3249 9.39187 21.3314C10.0199 21.5216 10.5245 21.1316 10.5245 21.1316L10.5529 21.1088L12.8954 18.976L16.8214 21.9879L16.9107 22.0261C17.7289 22.3853 18.5577 22.1854 18.9956 21.8328C19.4368 21.4777 19.6082 21.0235 19.6082 21.0235L19.6367 20.9504L22.6706 5.40807C22.7567 5.02457 22.7786 4.66544 22.6836 4.31688C22.5855 3.96411 22.3592 3.66071 22.049 3.46619C21.7885 3.30785 21.4865 3.23142 21.1821 3.24682ZM21.1 4.91244C21.0967 4.96363 21.1065 4.95794 21.0837 5.05625V5.06519L18.0783 20.4458C18.0653 20.4678 18.0434 20.5157 17.9832 20.5636C17.9199 20.614 17.8695 20.6457 17.6054 20.5409L12.8036 16.8594L9.90294 19.5033L10.5123 15.6114L18.3578 8.29894C18.6812 7.99832 18.5731 7.93494 18.5731 7.93494C18.5959 7.56607 18.0848 7.82688 18.0848 7.82688L8.19181 13.9556L8.18856 13.9393L3.44681 12.3428V12.3395L3.43463 12.3371C3.44294 12.3343 3.45108 12.331 3.459 12.3273L3.485 12.3143L3.51019 12.3054C3.51019 12.3054 7.74412 10.5211 12.0479 8.70925C14.2027 7.80169 16.3737 6.88763 18.0434 6.18238C19.7131 5.48119 20.9472 4.96688 21.0171 4.93925C21.0837 4.91325 21.0521 4.91325 21.1 4.91325V4.91244Z" fill="currentColor"/>
</svg>
