<?xml version="1.0" encoding="utf-8"?><svg viewBox="0 0 31 30" xmlns="http://www.w3.org/2000/svg" xmlns:xlink="http://www.w3.org/1999/xlink"><style>:root>svg{display:none}:root>svg:target{display:block}</style><svg fill="none" viewBox="0 0 29 26" id="add-favorite" xmlns="http://www.w3.org/2000/svg"><path d="M20.688.125c-2.393 0-4.69 1.114-6.188 2.874C13.001 1.239 10.705.125 8.312.125 4.079.125.75 3.453.75 7.688c0 5.197 4.675 9.432 11.756 15.867l1.994 1.801 1.994-1.815C23.575 17.12 28.25 12.885 28.25 7.687c0-4.234-3.328-7.562-7.563-7.562Zm-6.05 21.381-.138.138-.137-.138C7.818 15.58 3.5 11.661 3.5 7.687c0-2.75 2.063-4.812 4.813-4.812 2.117 0 4.18 1.361 4.908 3.245h2.572c.715-1.884 2.777-3.245 4.895-3.245 2.75 0 4.812 2.063 4.812 4.813 0 3.973-4.317 7.892-10.863 13.818Z" fill="currentColor"/></svg><svg fill="none" viewBox="0 0 18 12" id="article-arrow-back" xmlns="http://www.w3.org/2000/svg"><path d="M18 5H3.83l3.58-3.59L6 0 0 6l6 6 1.41-1.41L3.83 7H18V5Z" fill="#2D2D2D"/></svg><svg fill="none" viewBox="0 0 6 10" id="breadcrumb-arrow" xmlns="http://www.w3.org/2000/svg"><path d="M.443 8.443 3.878 5 .443 1.558 1.501.5 6 5 1.5 9.5.443 8.443Z" fill="#525252"/></svg><svg fill="none" viewBox="0 0 31 30" id="cart" xmlns="http://www.w3.org/2000/svg"><path d="M9.5 24a2.996 2.996 0 0 0-2.985 3c0 1.65 1.335 3 2.985 3s3-1.35 3-3-1.35-3-3-3ZM.5 0v3h3l5.4 11.385-2.025 3.675A2.9 2.9 0 0 0 6.5 19.5c0 1.65 1.35 3 3 3h18v-3H10.13a.371.371 0 0 1-.375-.375l.045-.18 1.35-2.445h11.175a2.986 2.986 0 0 0 2.625-1.545l5.37-9.735c.12-.21.18-.465.18-.72 0-.825-.675-1.5-1.5-1.5H6.815l-1.41-3H.5Zm24 24a2.996 2.996 0 0 0-2.985 3c0 1.65 1.335 3 2.985 3s3-1.35 3-3-1.35-3-3-3Z" fill="currentColor"/></svg><svg fill="none" viewBox="0 0 12 9" id="checked" xmlns="http://www.w3.org/2000/svg"><path d="M4.25 6.45 1.8 4l-.817.817L4.25 8.083l7-7-.817-.816L4.25 6.45Z" fill="#fff"/></svg><svg fill="none" viewBox="0 0 14 14" id="cross" xmlns="http://www.w3.org/2000/svg"><path d="M14 1.41 12.59 0 7 5.59 1.41 0 0 1.41 5.59 7 0 12.59 1.41 14 7 8.41 12.59 14 14 12.59 8.41 7 14 1.41Z" fill="currentColor"/></svg><svg fill="none" viewBox="0 0 18 24" id="delete" xmlns="http://www.w3.org/2000/svg"><path d="m13.021 2.354.147.146h4.082V4H.75V2.5h4.082l.147-.146L6.082 1.25h5.836l1.103 1.104ZM4 22.75c-1.099 0-2-.901-2-2V6.25h14v14.5c0 1.099-.901 2-2 2H4Z" fill="currentColor" stroke="currentColor"/></svg><svg fill="none" viewBox="0 0 15 6" id="dropdown" xmlns="http://www.w3.org/2000/svg"><path d="M7.5 6 .139 0H14.86L7.5 6Z" fill="currentColor"/></svg><svg fill="none" viewBox="0 0 26 26" id="facebook" xmlns="http://www.w3.org/2000/svg"><path d="M19.5 2.167h-3.25a5.417 5.417 0 0 0-5.416 5.416v3.25h-3.25v4.333h3.25v8.667h4.333v-8.666h3.25l1.083-4.334h-4.333v-3.25A1.084 1.084 0 0 1 16.25 6.5h3.25V2.167Z" stroke="currentColor" stroke-width="2" stroke-linecap="round" stroke-linejoin="round"/></svg><svg fill="none" viewBox="0 0 30 29" id="favorites" xmlns="http://www.w3.org/2000/svg"><path d="m15 28.025-2.175-1.98C5.1 19.04 0 14.42 0 8.75 0 4.13 3.63.5 8.25.5c2.61 0 5.115 1.215 6.75 3.135C16.635 1.715 19.14.5 21.75.5 26.37.5 30 4.13 30 8.75c0 5.67-5.1 10.29-12.825 17.31L15 28.025Z" fill="currentColor"/></svg><svg fill="none" viewBox="0 0 26 26" id="instagram" xmlns="http://www.w3.org/2000/svg"><path d="M13 2c-2.985 0-3.36.014-4.533.066-1.173.055-1.972.24-2.672.512-.734.276-1.4.709-1.948 1.269a5.4 5.4 0 0 0-1.27 1.948c-.272.699-.457 1.499-.511 2.668C2.014 9.638 2 10.013 2 13c0 2.987.014 3.36.066 4.534.055 1.171.24 1.97.512 2.67a5.403 5.403 0 0 0 1.269 1.948c.61.612 1.223.989 1.947 1.27.7.272 1.498.457 2.67.511C9.638 23.986 10.012 24 13 24c2.988 0 3.36-.014 4.535-.066 1.17-.055 1.971-.24 2.671-.512a5.386 5.386 0 0 0 1.947-1.269 5.404 5.404 0 0 0 1.27-1.948c.27-.7.456-1.499.511-2.67.052-1.173.066-1.547.066-4.535 0-2.988-.014-3.362-.066-4.536-.055-1.17-.24-1.97-.512-2.669a5.4 5.4 0 0 0-1.269-1.948 5.379 5.379 0 0 0-1.948-1.27c-.701-.272-1.502-.457-2.672-.511C16.36 2.014 15.986 2 12.997 2h.004H13Zm-.986 1.983h.987c2.937 0 3.285.01 4.444.063 1.073.048 1.656.228 2.044.378.512.2.88.439 1.265.824a3.4 3.4 0 0 1 .822 1.265c.151.386.33.97.378 2.042.054 1.159.065 1.507.065 4.442 0 2.936-.011 3.285-.065 4.444-.048 1.073-.228 1.654-.378 2.042-.177.478-.458.91-.824 1.264-.385.385-.75.623-1.265.822-.385.151-.968.33-2.042.38-1.159.052-1.507.064-4.444.064-2.937 0-3.286-.012-4.445-.065-1.072-.049-1.654-.228-2.042-.379a3.407 3.407 0 0 1-1.265-.822 3.41 3.41 0 0 1-.825-1.265c-.15-.387-.33-.97-.378-2.042-.052-1.16-.063-1.507-.063-4.446 0-2.937.01-3.283.063-4.442.05-1.073.228-1.656.38-2.043.199-.513.438-.88.823-1.265.385-.385.75-.623 1.265-.823.388-.15.97-.33 2.042-.38 1.015-.046 1.408-.06 3.458-.061v.003Zm6.859 1.826a1.32 1.32 0 1 0 0 2.64 1.32 1.32 0 0 0 0-2.64ZM13 7.35a5.65 5.65 0 1 0-.176 11.3 5.65 5.65 0 0 0 .176-11.3Zm0 1.982a3.667 3.667 0 1 1 0 7.333 3.667 3.667 0 0 1 0-7.333Z" fill="currentColor"/></svg><svg fill="none" viewBox="0 0 27 27" id="loupe" xmlns="http://www.w3.org/2000/svg"><path d="M19.25 17h-1.185l-.42-.405A9.707 9.707 0 0 0 20 10.25 9.75 9.75 0 0 0 10.25.5 9.75 9.75 0 0 0 .5 10.25 9.75 9.75 0 0 0 10.25 20a9.707 9.707 0 0 0 6.345-2.355l.405.42v1.185l7.5 7.485 2.235-2.235L19.25 17Zm-9 0a6.741 6.741 0 0 1-6.75-6.75 6.741 6.741 0 0 1 6.75-6.75A6.741 6.741 0 0 1 17 10.25 6.741 6.741 0 0 1 10.25 17Z" fill="currentColor"/></svg><svg fill="none" viewBox="0 0 18 12" id="menu-lines" xmlns="http://www.w3.org/2000/svg"><path d="M0 12h6v-2H0v2ZM0 0v2h18V0H0Zm0 7h12V5H0v2Z" fill="currentColor"/></svg><svg fill="none" viewBox="0 0 18 20" id="notification" xmlns="http://www.w3.org/2000/svg"><path d="M16 11.586V8c0-3.217-2.185-5.927-5.145-6.742A1.99 1.99 0 0 0 9 0a1.99 1.99 0 0 0-1.855 1.258C4.185 2.074 2 4.783 2 8v3.586L.293 13.293A.996.996 0 0 0 0 14v2a1 1 0 0 0 1 1h16a1 1 0 0 0 1-1v-2a.996.996 0 0 0-.293-.707L16 11.586ZM16 15H2v-.586l1.707-1.707A.996.996 0 0 0 4 12V8c0-2.757 2.243-5 5-5s5 2.243 5 5v4c0 .266.105.52.293.707L16 14.414V15Zm-7 5a2.98 2.98 0 0 0 2.818-2H6.182A2.98 2.98 0 0 0 9 20Z" fill="currentColor"/></svg><svg fill="none" viewBox="0 0 29 19" id="pagination-arrow-left" xmlns="http://www.w3.org/2000/svg"><path d="M28.375 7.958H6.53l5.519-5.534L9.875.25.625 9.5l9.25 9.25 2.174-2.174-5.52-5.534h21.846V7.958Z" fill="currentColor"/></svg><svg fill="none" viewBox="0 0 29 19" id="pagination-arrow-right" xmlns="http://www.w3.org/2000/svg"><path d="M.625 7.958H22.47l-5.519-5.534L19.125.25l9.25 9.25-9.25 9.25-2.174-2.174 5.52-5.534H.624V7.958Z" fill="currentColor"/></svg><svg fill="none" viewBox="0 0 24 24" id="profile" xmlns="http://www.w3.org/2000/svg"><path d="M12 12c3.315 0 6-2.685 6-6s-2.685-6-6-6-6 2.685-6 6 2.685 6 6 6Zm0 3c-4.005 0-12 2.01-12 6v3h24v-3c0-3.99-7.995-6-12-6Z" fill="currentColor"/></svg><svg fill="none" viewBox="0 0 26 26" id="telegram" xmlns="http://www.w3.org/2000/svg"><path d="M21.182 3.247c-.26.019-.517.08-.758.181h-.003c-.232.092-1.333.555-3.006 1.257L11.416 7.21c-4.304 1.812-8.535 3.596-8.535 3.596l.05-.02s-.291.096-.596.305a1.65 1.65 0 0 0-.476.461c-.15.22-.27.555-.225.902.073.586.453.938.726 1.133.277.196.54.288.54.288h.006l3.968 1.337c.178.57 1.209 3.96 1.457 4.741.146.467.288.758.466.98.086.115.187.21.308.286a.91.91 0 0 0 .2.086l-.04-.01c.011.004.021.014.03.017.033.009.054.012.096.018.628.19 1.133-.2 1.133-.2l.028-.022 2.342-2.133 3.926 3.012.09.038c.818.36 1.647.16 2.085-.193.44-.355.612-.81.612-.81l.029-.073L22.67 5.408c.086-.383.108-.743.013-1.091a1.468 1.468 0 0 0-.635-.85 1.521 1.521 0 0 0-.867-.22ZM21.1 4.912c-.003.052.006.046-.016.144v.01l-3.006 15.38c-.013.022-.035.07-.095.118-.063.05-.114.082-.378-.023l-4.801-3.682-2.901 2.644.61-3.892L18.357 8.3c.323-.3.215-.364.215-.364.023-.369-.488-.108-.488-.108l-9.893 6.129-.003-.017-4.742-1.596v-.004l-.012-.002a.235.235 0 0 0 .024-.01l.026-.013.025-.009 8.538-3.596c2.155-.907 4.326-1.821 5.995-2.527 1.67-.7 2.904-1.215 2.974-1.243.067-.026.035-.026.083-.026Z" fill="currentColor"/></svg><svg fill="none" viewBox="0 0 26 26" id="whatsup" xmlns="http://www.w3.org/2000/svg"><path d="M18.116 15.232c-.277-.142-1.655-.818-1.912-.91-.256-.096-.444-.141-.63.143-.187.282-.72.909-.888 1.1-.163.187-.328.21-.604.07-1.646-.822-2.725-1.467-3.81-3.328-.286-.495.288-.46.824-1.529.091-.188.045-.348-.026-.49-.07-.142-.63-1.518-.863-2.08-.226-.545-.46-.469-.63-.48-.162-.01-.348-.01-.536-.01-.187 0-.49.072-.746.349-.256.281-.98.96-.98 2.335 0 1.377 1.003 2.71 1.14 2.898.142.188 1.973 3.01 4.784 4.227 1.777.767 2.473.833 3.361.7.541-.08 1.656-.675 1.887-1.332.23-.655.23-1.216.162-1.333-.068-.124-.256-.196-.533-.33Z" fill="currentColor"/><path d="M23.491 8.592a11.377 11.377 0 0 0-2.445-3.638 11.282 11.282 0 0 0-3.638-2.445A11.321 11.321 0 0 0 13 1.625h-.05A11.349 11.349 0 0 0 1.624 13.053a11.41 11.41 0 0 0 1.219 5.076v3.86c0 .644.523 1.167 1.168 1.167h3.862a11.41 11.41 0 0 0 5.075 1.219h.054c1.52 0 2.996-.294 4.385-.87a11.285 11.285 0 0 0 3.625-2.418 11.348 11.348 0 0 0 3.362-8.036 11.329 11.329 0 0 0-.884-4.459Zm-3.836 11.121A9.395 9.395 0 0 1 13 22.445h-.043a9.479 9.479 0 0 1-4.395-1.104l-.213-.114H4.774v-3.575l-.115-.214a9.48 9.48 0 0 1-1.104-4.395 9.387 9.387 0 0 1 2.732-6.698 9.374 9.374 0 0 1 6.673-2.79h.043a9.4 9.4 0 0 1 3.661.733 9.385 9.385 0 0 1 3.021 2.032 9.406 9.406 0 0 1 2.765 6.723 9.41 9.41 0 0 1-2.795 6.67Z" fill="currentColor"/></svg><svg fill="none" viewBox="0 0 26 26" id="youtube" xmlns="http://www.w3.org/2000/svg"><path d="M24.375 12.93c0-.057 0-.12-.003-.194-.002-.206-.007-.437-.012-.683a38.176 38.176 0 0 0-.112-2.08c-.076-.916-.188-1.68-.34-2.254a3.543 3.543 0 0 0-2.496-2.501c-.719-.193-2.125-.312-4.106-.386-.942-.036-1.95-.058-2.958-.071-.353-.005-.68-.008-.975-.01h-.746c-.295.002-.622.005-.975.01-1.008.013-2.016.035-2.958.071-1.98.076-3.39.195-4.106.386a3.538 3.538 0 0 0-2.496 2.5c-.155.575-.264 1.339-.34 2.256a38.237 38.237 0 0 0-.112 2.08c-.007.245-.01.476-.012.682 0 .074-.003.137-.003.193v.142c0 .056 0 .12.003.193.002.206.007.437.012.683.02.709.056 1.415.112 2.08.076.916.188 1.68.34 2.254a3.538 3.538 0 0 0 2.496 2.501c.716.193 2.125.313 4.106.386.942.036 1.95.059 2.958.071.353.005.68.008.975.01h.746c.295-.002.622-.005.975-.01 1.008-.012 2.016-.035 2.958-.07 1.98-.077 3.39-.196 4.106-.387a3.534 3.534 0 0 0 2.496-2.5c.155-.574.264-1.339.34-2.255.056-.666.091-1.371.112-2.08.007-.246.01-.477.012-.683 0-.073.003-.137.003-.193v-.142Zm-1.828.131c0 .053 0 .112-.003.18-.002.198-.007.417-.012.653a34.28 34.28 0 0 1-.107 1.978c-.069.817-.165 1.488-.284 1.937a1.708 1.708 0 0 1-1.204 1.206c-.533.142-1.876.257-3.702.325a115.609 115.609 0 0 1-3.872.079h-.726l-.96-.008c-.993-.012-1.985-.035-2.912-.07-1.826-.072-3.171-.184-3.702-.326a1.713 1.713 0 0 1-1.204-1.206c-.119-.45-.215-1.12-.284-1.937a36.77 36.77 0 0 1-.107-1.978c-.007-.236-.01-.457-.012-.653 0-.068-.003-.13-.003-.18v-.122c0-.053 0-.111.003-.18.002-.198.007-.417.012-.653.018-.675.054-1.35.107-1.977.069-.818.165-1.488.284-1.938a1.708 1.708 0 0 1 1.204-1.206c.533-.142 1.876-.256 3.702-.325a115.36 115.36 0 0 1 3.872-.079h.726l.96.008c.993.013 1.985.036 2.912.071 1.826.071 3.171.183 3.702.325.584.158 1.046.62 1.204 1.206.119.45.215 1.12.284 1.938.053.627.086 1.302.107 1.977.007.236.01.457.012.653 0 .069.003.13.003.18v.122ZM10.74 16.402l5.89-3.427-5.89-3.377v6.804Z" fill="currentColor"/></svg></svg>